<mxfile host="app.diagrams.net" modified="2021-03-02T13:34:50.429Z" agent="5.0 (Windows NT 10.0; Win64; x64) AppleWebKit/537.36 (KHTML, like Gecko) Chrome/88.0.4324.190 Safari/537.36" etag="b28ZGfY2tsls805DHYHf" version="14.4.3" type="github">
  <diagram id="YX3Qmc5mIcwVC7KldEEO" name="Page-1">
    <mxGraphModel dx="782" dy="437" grid="1" gridSize="10" guides="1" tooltips="1" connect="1" arrows="1" fold="1" page="1" pageScale="1" pageWidth="850" pageHeight="1100" math="0" shadow="0">
      <root>
        <mxCell id="0" />
        <mxCell id="1" parent="0" />
        <mxCell id="lyBzS54nXXmUgzS3-u7w-3" style="edgeStyle=orthogonalEdgeStyle;rounded=0;orthogonalLoop=1;jettySize=auto;html=1;exitX=0.5;exitY=0.5;exitDx=0;exitDy=0;exitPerimeter=0;entryX=0;entryY=0.5;entryDx=0;entryDy=0;" edge="1" parent="1" source="lyBzS54nXXmUgzS3-u7w-1" target="lyBzS54nXXmUgzS3-u7w-4">
          <mxGeometry relative="1" as="geometry">
            <mxPoint x="120" y="105" as="targetPoint" />
            <mxPoint x="86" y="105" as="sourcePoint" />
            <Array as="points" />
          </mxGeometry>
        </mxCell>
        <mxCell id="lyBzS54nXXmUgzS3-u7w-1" value="Actor" style="shape=umlActor;verticalLabelPosition=bottom;verticalAlign=top;html=1;outlineConnect=0;" vertex="1" parent="1">
          <mxGeometry x="10" y="30" width="20" height="50" as="geometry" />
        </mxCell>
        <mxCell id="lyBzS54nXXmUgzS3-u7w-4" value="HTTP Server" style="rounded=0;whiteSpace=wrap;html=1;fontStyle=1;fontSize=14;" vertex="1" parent="1">
          <mxGeometry x="140" y="25" width="110" height="60" as="geometry" />
        </mxCell>
        <mxCell id="lyBzS54nXXmUgzS3-u7w-6" value="Creator Job" style="ellipse;whiteSpace=wrap;html=1;aspect=fixed;" vertex="1" parent="1">
          <mxGeometry x="90" y="260" width="60" height="60" as="geometry" />
        </mxCell>
        <mxCell id="lyBzS54nXXmUgzS3-u7w-7" value="" style="endArrow=classic;html=1;entryX=-0.037;entryY=0.615;entryDx=0;entryDy=0;strokeColor=#3333FF;entryPerimeter=0;exitX=0.5;exitY=0;exitDx=0;exitDy=0;" edge="1" parent="1" source="lyBzS54nXXmUgzS3-u7w-6" target="lyBzS54nXXmUgzS3-u7w-24">
          <mxGeometry width="50" height="50" relative="1" as="geometry">
            <mxPoint x="404" y="190" as="sourcePoint" />
            <mxPoint x="196" y="180.65999999999997" as="targetPoint" />
            <Array as="points">
              <mxPoint x="120" y="200" />
            </Array>
          </mxGeometry>
        </mxCell>
        <mxCell id="lyBzS54nXXmUgzS3-u7w-10" value="" style="rounded=1;whiteSpace=wrap;html=1;" vertex="1" parent="1">
          <mxGeometry x="50" y="360" width="560" height="110" as="geometry" />
        </mxCell>
        <mxCell id="lyBzS54nXXmUgzS3-u7w-11" value="Create Application API" style="rounded=0;whiteSpace=wrap;html=1;" vertex="1" parent="1">
          <mxGeometry x="80" y="360" width="190" height="30" as="geometry" />
        </mxCell>
        <mxCell id="lyBzS54nXXmUgzS3-u7w-15" value="&lt;h3&gt;&lt;font style=&quot;font-size: 20px&quot;&gt;Bank Partner APIs&lt;/font&gt;&lt;/h3&gt;" style="text;html=1;strokeColor=none;fillColor=none;align=center;verticalAlign=middle;whiteSpace=wrap;rounded=0;" vertex="1" parent="1">
          <mxGeometry x="150" y="410" width="260" height="40" as="geometry" />
        </mxCell>
        <mxCell id="lyBzS54nXXmUgzS3-u7w-16" value="Job API" style="rounded=0;whiteSpace=wrap;html=1;" vertex="1" parent="1">
          <mxGeometry x="390" y="360" width="190" height="30" as="geometry" />
        </mxCell>
        <mxCell id="lyBzS54nXXmUgzS3-u7w-18" value="" style="endArrow=classic;html=1;fontSize=14;entryX=0.5;entryY=1;entryDx=0;entryDy=0;strokeColor=#3333FF;" edge="1" parent="1" target="lyBzS54nXXmUgzS3-u7w-6">
          <mxGeometry width="50" height="50" relative="1" as="geometry">
            <mxPoint x="120" y="362" as="sourcePoint" />
            <mxPoint x="616" y="210" as="targetPoint" />
            <Array as="points" />
          </mxGeometry>
        </mxCell>
        <mxCell id="lyBzS54nXXmUgzS3-u7w-19" value="" style="rounded=0;whiteSpace=wrap;html=1;fontSize=14;" vertex="1" parent="1">
          <mxGeometry x="260" y="260" width="210" height="60" as="geometry" />
        </mxCell>
        <mxCell id="lyBzS54nXXmUgzS3-u7w-23" value="" style="endArrow=classic;html=1;strokeColor=#000000;fontSize=14;entryX=0.4;entryY=-0.011;entryDx=0;entryDy=0;exitX=0.5;exitY=1;exitDx=0;exitDy=0;entryPerimeter=0;" edge="1" parent="1" source="lyBzS54nXXmUgzS3-u7w-4">
          <mxGeometry width="50" height="50" relative="1" as="geometry">
            <mxPoint x="230" y="80" as="sourcePoint" />
            <mxPoint x="196" y="119.34000000000003" as="targetPoint" />
          </mxGeometry>
        </mxCell>
        <mxCell id="lyBzS54nXXmUgzS3-u7w-24" value="SQL" style="shape=cylinder3;whiteSpace=wrap;html=1;boundedLbl=1;backgroundOutline=1;size=15;fontSize=14;" vertex="1" parent="1">
          <mxGeometry x="160" y="120" width="90" height="130" as="geometry" />
        </mxCell>
        <mxCell id="lyBzS54nXXmUgzS3-u7w-26" value="" style="endArrow=classic;html=1;strokeColor=#00CCCC;fontSize=14;exitX=0;exitY=0.5;exitDx=0;exitDy=0;" edge="1" parent="1" source="lyBzS54nXXmUgzS3-u7w-28">
          <mxGeometry width="50" height="50" relative="1" as="geometry">
            <mxPoint x="230" y="290" as="sourcePoint" />
            <mxPoint x="149" y="280" as="targetPoint" />
          </mxGeometry>
        </mxCell>
        <mxCell id="lyBzS54nXXmUgzS3-u7w-27" value="" style="endArrow=classic;html=1;strokeColor=#00CCCC;fontSize=14;exitX=1;exitY=1;exitDx=0;exitDy=0;" edge="1" parent="1" source="lyBzS54nXXmUgzS3-u7w-6">
          <mxGeometry width="50" height="50" relative="1" as="geometry">
            <mxPoint x="130" y="320" as="sourcePoint" />
            <mxPoint x="140" y="359" as="targetPoint" />
          </mxGeometry>
        </mxCell>
        <mxCell id="lyBzS54nXXmUgzS3-u7w-28" value="" style="shape=message;html=1;whiteSpace=wrap;html=1;outlineConnect=0;fontSize=14;" vertex="1" parent="1">
          <mxGeometry x="270" y="270" width="30" height="20" as="geometry" />
        </mxCell>
        <mxCell id="lyBzS54nXXmUgzS3-u7w-29" value="" style="shape=message;html=1;whiteSpace=wrap;html=1;outlineConnect=0;fontSize=14;" vertex="1" parent="1">
          <mxGeometry x="310" y="270" width="30" height="20" as="geometry" />
        </mxCell>
        <mxCell id="lyBzS54nXXmUgzS3-u7w-30" value="Nats Server" style="text;html=1;strokeColor=none;fillColor=none;align=center;verticalAlign=middle;whiteSpace=wrap;rounded=0;fontSize=14;" vertex="1" parent="1">
          <mxGeometry x="330" y="300" width="100" height="20" as="geometry" />
        </mxCell>
        <mxCell id="lyBzS54nXXmUgzS3-u7w-31" value="" style="shape=message;html=1;whiteSpace=wrap;html=1;outlineConnect=0;fontSize=14;" vertex="1" parent="1">
          <mxGeometry x="350" y="270" width="30" height="20" as="geometry" />
        </mxCell>
        <mxCell id="lyBzS54nXXmUgzS3-u7w-32" value="" style="shape=message;html=1;whiteSpace=wrap;html=1;outlineConnect=0;fontSize=14;" vertex="1" parent="1">
          <mxGeometry x="390" y="270" width="30" height="20" as="geometry" />
        </mxCell>
        <mxCell id="lyBzS54nXXmUgzS3-u7w-33" value="" style="shape=message;html=1;whiteSpace=wrap;html=1;outlineConnect=0;fontSize=14;" vertex="1" parent="1">
          <mxGeometry x="430" y="270" width="30" height="20" as="geometry" />
        </mxCell>
        <mxCell id="lyBzS54nXXmUgzS3-u7w-35" value="Queue Job" style="ellipse;whiteSpace=wrap;html=1;aspect=fixed;" vertex="1" parent="1">
          <mxGeometry x="395" y="155" width="60" height="60" as="geometry" />
        </mxCell>
        <mxCell id="lyBzS54nXXmUgzS3-u7w-36" value="" style="endArrow=classic;html=1;strokeColor=#00CCCC;fontSize=14;exitX=0;exitY=0.5;exitDx=0;exitDy=0;" edge="1" parent="1" source="lyBzS54nXXmUgzS3-u7w-35">
          <mxGeometry width="50" height="50" relative="1" as="geometry">
            <mxPoint x="230" y="230" as="sourcePoint" />
            <mxPoint x="395" y="185" as="targetPoint" />
            <Array as="points">
              <mxPoint x="250" y="185" />
            </Array>
          </mxGeometry>
        </mxCell>
        <mxCell id="lyBzS54nXXmUgzS3-u7w-37" value="" style="endArrow=classic;html=1;strokeColor=#00CCCC;fontSize=14;entryX=0.8;entryY=-0.022;entryDx=0;entryDy=0;entryPerimeter=0;" edge="1" parent="1" target="lyBzS54nXXmUgzS3-u7w-19">
          <mxGeometry width="50" height="50" relative="1" as="geometry">
            <mxPoint x="428" y="215" as="sourcePoint" />
            <mxPoint x="280" y="230" as="targetPoint" />
          </mxGeometry>
        </mxCell>
        <mxCell id="lyBzS54nXXmUgzS3-u7w-38" value="Picks queued applications from DB and adds to queue" style="text;html=1;strokeColor=none;fillColor=none;align=center;verticalAlign=middle;whiteSpace=wrap;rounded=0;fontSize=14;" vertex="1" parent="1">
          <mxGeometry x="320" y="110" width="160" height="40" as="geometry" />
        </mxCell>
        <mxCell id="lyBzS54nXXmUgzS3-u7w-39" value="Picks appliations from DB and adds to queue" style="text;html=1;strokeColor=none;fillColor=none;align=center;verticalAlign=middle;whiteSpace=wrap;rounded=0;fontSize=14;" vertex="1" parent="1">
          <mxGeometry x="10" y="230" width="90" height="40" as="geometry" />
        </mxCell>
      </root>
    </mxGraphModel>
  </diagram>
</mxfile>
